<svg version="1.2" xmlns="http://www.w3.org/2000/svg" viewBox="0 0 123 72" width="123" height="72">
	<title>business-team-icon-svg</title>
	<style>
		.s0 { fill: #ffffff } 
	</style>
	<g id="Layer">
		<path id="Layer" fill-rule="evenodd" class="s0" d="m92 64.7l1.9-7.6-1.3-1.5q-1-1.4-0.4-2.4c0.7-1.4 2.2-1.2 3.7-1.2 1.5 0 3.4-0.3 3.8 1.6 0.2 0.7 0 1.3-0.5 2l-1.3 1.5 1.2 4.6 7.8-6.9 4.1 0.1c-1.4-2.8-3.2-5.2-5.2-7.5 3.9 1.5 7.9 3 10.9 4.9 1.8 1.2 2.8 2.1 3.6 3.5 1.6 3 1.8 5.8 2 9.1l0.6 2.8h-22.2v0.1h-8.5c-0.2 1.9-1.3 3.1-3.5 3.2h-54.5c-2.2-0.1-3.3-1.3-3.5-3.2l0.8-12.1c0.2-2.8 1-5 2.3-6.6 0.8-1.1 1.8-2 3-2.6 3.6-2 12.2-2.6 15.5-5.6l5 14.9 2.6-8.9-1.3-1.3q-0.8-1.3-0.3-2.2c0.7-1.3 2.1-1.1 3.4-1.1 1.3 0 3-0.2 3.5 1.5 0.1 0.6-0.1 1.2-0.5 1.8l-1.2 1.3 2.5 8.9 4.6-14.9c3.3 3 11.8 3.6 15.5 5.6 1.1 0.6 2.2 1.5 3 2.6 1.3 1.6 2.1 3.8 2.3 6.6zm-76.7-16.4l3.4 10 1.7-5.9-0.8-1q-0.6-0.8-0.3-1.4c0.5-0.9 1.4-0.7 2.3-0.7 0.9 0 2.1-0.2 2.3 0.9 0.1 0.4 0 0.8-0.2 1.2l-0.9 1 1.7 5.9 3.1-10q0.7 0.6 1.8 1-0.4 0.8-0.7 1.7-0.8 2.3-1 5.1 0 0 0 0.1l-0.7 11.6h-24.6c-1.5-0.1-2.3-0.9-2.4-2.2l0.5-7.4c0.2-1.8 0.7-3.3 1.6-4.4 0.5-0.8 1.2-1.3 2-1.7 2.4-1.4 9-1.8 11.2-3.8zm15.3-15.1q0.7 0.2 1 0.8c0.3 0.6 0.2 1.6-0.4 3q-0.1 0-0.1 0.1l-2.1 3.5c-0.9 1.4-1.7 2.8-2.9 3.9-1.2 1.1-2.6 1.8-4.6 1.8-1.9 0-3.3-0.7-4.5-1.8-1.1-1-1.9-2.3-2.7-3.6l-1.9-3q-1.1-1.6-1.1-2.8-0.1-0.6 0.2-1 0.2-0.5 0.7-0.9 0.2-0.1 0.5-0.2c-0.1-1.6-0.2-3.6-0.1-5.3q0.1-0.6 0.2-1.2c0.5-1.8 1.7-3.2 3.2-4.1q0.8-0.5 1.8-0.9c3.6-1.3 8.4-0.6 11 2.2 1.1 1.2 1.8 2.7 1.9 4.7zm-16.9 0.9q-0.5 0.1-0.8 0.2-0.2 0.2-0.2 0.3-0.1 0.2-0.1 0.5c0 0.5 0.3 1.2 0.9 2.1l1.9 3c0.7 1.2 1.5 2.5 2.5 3.4 0.9 0.8 2.1 1.4 3.6 1.4 1.6 0 2.8-0.6 3.7-1.5 1.1-1 1.9-2.3 2.6-3.5l2.2-3.6c0.4-0.9 0.5-1.5 0.4-1.8q-0.2-0.3-1-0.2-0.6 0.1-1.2-0.2l1.1-3.2c-3.9 0-6.6-0.7-9.8-2.7-1-0.7-1.3-1.4-2.4-1.4q-1.2 0.2-1.9 1.1-0.8 0.8-1.2 2.2l0.7 3.8q-0.5 0.3-1 0.1zm61.4-15.7q1 0.3 1.5 1.2c0.5 1 0.3 2.4-0.6 4.5q0 0-0.1 0.1l-3.2 5.3c-1.3 2.1-2.5 4.1-4.2 5.7-1.8 1.7-4 2.8-7 2.8-2.8 0-4.9-1.1-6.6-2.7-1.7-1.5-3-3.4-4.2-5.3l-2.8-4.6c-1-1.5-1.6-3-1.6-4.2q-0.1-0.8 0.3-1.5 0.3-0.8 1-1.2 0.3-0.3 0.8-0.4c-0.2-2.4-0.2-5.4-0.1-7.9q0.1-0.9 0.3-1.9c0.7-2.5 2.6-4.6 4.8-6.1q1.2-0.7 2.6-1.2c5.4-2 12.6-0.9 16.5 3.3 1.6 1.7 2.6 3.9 2.8 6.9zm-25.4 1.5q-0.7 0-1 0.3-0.2 0.1-0.4 0.4-0.1 0.2-0.1 0.6c0 0.9 0.5 2 1.3 3.2h0.1l2.8 4.5c1.1 1.8 2.3 3.7 3.8 5 1.4 1.3 3 2.1 5.3 2.1 2.4 0.1 4.1-0.8 5.6-2.2 1.5-1.4 2.7-3.3 3.9-5.3l3.2-5.2c0.6-1.5 0.8-2.4 0.6-2.8-0.1-0.2-0.7-0.3-1.6-0.2q-0.2 0-0.3 0-0.5 0-1.2-0.3l1.4-4.8c-5.8-0.1-9.8-1.1-14.5-4.1-1.6-1-2.1-2.1-3.6-2q-1.8 0.3-3 1.6-1.1 1.2-1.6 3.3l1 5.8q-0.9 0.4-1.7 0.1zm33.4 12.3c1-6.1 3.4-10.6 7.2-13.1 2.7-1.8 4.2-1.9 7.3-1.9 2.7 0 4.3 0 6.6 1.5 7.4 4.9 9.7 16.4 6.1 24.2h-3.4q0.5-1.3 0.7-2.8c0.3-2.1 0.3-3.8-0.6-5.8-0.9-1.7-2.1-2.5-3.3-3.2 1.4 1.6 2.5 3.1 2.2 4.3q-2.5-2.8-5.2-4.8c-3.8-2-6-4.6-7-7.8-5.8 5.8-6.6 12.7-4.2 20.1l-2.1 0.1h-2.5c-2.1-2.4-2-7.7-1.8-10.8z"/>
	</g>
</svg>