<svg version="1.2" xmlns="http://www.w3.org/2000/svg" viewBox="0 0 123 86" width="123" height="86">
	<title>dashboard-report-icon-svg</title>
	<style>
		.s0 { fill: #ffffff } 
	</style>
	<g id="Layer">
		<path id="Layer" fill-rule="evenodd" class="s0" d="m7.5 0h107.9c4.1 0 7.5 3.4 7.5 7.5v70.6c0 4.1-3.4 7.5-7.5 7.5h-107.9c-4.1 0-7.5-3.4-7.5-7.5v-70.6c0-4.1 3.4-7.5 7.5-7.5zm-0.3 14.1v64.4h108.4v-64.4zm62.7 39h39.1v4h-39.1zm22.2-18.1h5.6c0.3 0 0.5 0.2 0.5 0.5v11c0 0.3-0.2 0.5-0.5 0.5h-5.6c-0.3 0-0.5-0.2-0.5-0.5v-11c0-0.2 0.2-0.5 0.5-0.5zm-21.6-6.7h5.6c0.3 0 0.5 0.2 0.5 0.5v17.8c0 0.3-0.2 0.5-0.5 0.5h-5.6c-0.3 0-0.5-0.2-0.5-0.5v-17.8c-0.1-0.3 0.2-0.5 0.5-0.5zm10.8-3.8h5.6c0.3 0 0.5 0.2 0.5 0.5v21.6c0 0.3-0.2 0.5-0.5 0.5h-5.6c-0.3 0-0.5-0.2-0.5-0.5v-21.6c0-0.3 0.2-0.5 0.5-0.5zm-42 23.7l17 0.3c0 6.1-3 11.7-8 15.1zm-1.7-2.9l-0.2-19.8v-1.3l1.3 0.1c1.6 0.1 3.2 0.4 4.7 0.8 1.5 0.4 2.9 1 4.3 1.7 6.9 3.6 11.7 10.8 12.1 19l0.1 1.3h-1.3l-19.7-0.6h-1.1zm2.2-18.6l0.2 17.4 17.3 0.5c-0.7-6.8-4.9-12.7-10.7-15.8-1.2-0.6-2.5-1.1-3.8-1.5-1.1-0.2-2-0.4-3-0.6zm-3.9 20.5l9.7 16.8c-3 1.7-6.3 2.6-9.7 2.6-10.7 0-19.4-8.7-19.4-19.4 0-10.4 8.2-19 18.6-19.4zm34 16.1h28.5v4h-28.5z"/>
	</g>
</svg>