<svg version="1.2" xmlns="http://www.w3.org/2000/svg" viewBox="0 0 123 80" width="123" height="80">
	<title>deposit-svg</title>
	<style>
		.s0 { fill: #ffffff } 
	</style>
	<g id="Layer">
		<path id="Layer" fill-rule="evenodd" class="s0" d="m11.5 0l12 6.5-11.5 21.4-12-6.5zm107.3 79.8h-64.3c-1.2 0-2.2-0.4-2.9-1.2-0.8-0.7-1.2-1.7-1.2-2.9v-23c-2.6-1.4-5-3-7.2-4.8l-10.5-2.4c-4.3-1.4-7.5-3.6-9.1-6.9q-1.2-2.7-2.7-4.8c-2.1-3.3-0.4-1.5-3.6-3.4l-2.4-1.5c1.8-4.9 8.7-16.4 11.2-21l8.2 2.6c7.1 2.5 15.2 4.4 23.5 6 4 1.2 6.7 2.9 7.7 5.3l7.1 13.6h46.2c1 0 2 0.5 2.8 1.2q0 0 0.1 0.1c0.7 0.7 1.2 1.7 1.2 2.9v36.1c0 1.1-0.5 2.2-1.2 2.9-0.8 0.8-1.8 1.2-2.9 1.2zm-65.6-7.7v3.6c0 0.4 0.1 0.7 0.4 0.9 0.2 0.3 0.5 0.4 0.9 0.4h64.3c0.3 0 0.6-0.1 0.8-0.4h0.1c0.2-0.2 0.3-0.5 0.3-0.9v-3.6zm66.9-32.5c0-0.4-0.2-0.7-0.4-0.9q0-0.1-0.1-0.1c-0.2-0.2-0.5-0.3-0.8-0.3h-64.3q-0.3 0-0.6 0.2c5 2 9.1 4.6 12 7.9 4.3 5.5 1.2 11-5.9 9.6q-3.6-0.7-6.8-2v7.2h66.9zm-24.7 9.3c0-3 2.5-5.5 5.5-5.5 1.8 0 3.4 0.9 4.4 2.2 1-1.3 2.6-2.2 4.4-2.2 3.1 0 5.5 2.5 5.5 5.5 0 3-2.4 5.5-5.5 5.5-1.8 0-3.4-0.9-4.4-2.2-1 1.3-2.6 2.2-4.4 2.2-3 0-5.5-2.5-5.5-5.5zm-44.1-11.9q0.2-0.1 0.3-0.3c0.7-0.7 1.8-1.2 2.9-1.2h5.7q-1.2-1.6-2.3-3.2c-1.6-2.3-0.9-1.9-3.8-2.3q-2.2-0.3-4.5-0.5c-1.1 0.8-2.1 1.6-2.9 2.6 1.2 2 2.8 3.6 4.6 4.9z"/>
	</g>
</svg>