<svg version="1.2" xmlns="http://www.w3.org/2000/svg" viewBox="0 0 123 123" width="123" height="123">
	<title>edit-round-icon-svg</title>
	<style>
		.s0 { fill: #1c2434 } 
	</style>
	<g id="Layer">
		<path id="Layer" fill-rule="evenodd" class="s0" d="m61.4 0c34 0 61.5 27.5 61.5 61.4 0 34-27.5 61.5-61.5 61.5-33.9 0-61.4-27.5-61.4-61.5 0-33.9 27.5-61.4 61.4-61.4zm17.1 57l-13.8-13.4-26 27.1-3.5 13.2c-1.1 4.2-1.4 6.2-0.9 6 0.6-0.1 2.9-0.9 7.3-2.3q2.7-0.9 5.5-1.8c1.8-0.6 3.6-1.2 5.5-1.8zm-0.1-23.1c-0.6-0.6-1.4-0.9-2.2-0.9q-1.3 0-2.2 1l-5 5.1 13.9 13.4 5-5.2c0.6-0.6 0.8-1.4 0.8-2.3 0-0.8-0.3-1.6-0.9-2.2z"/>
	</g>
</svg>