<svg version="1.2" xmlns="http://www.w3.org/2000/svg" viewBox="0 0 123 121" width="123" height="121">
	<title>personal-info-icon-svg</title>
	<style>
		.s0 { fill: #ffffff } 
	</style>
	<path id="Layer" fill-rule="evenodd" class="s0" d="m47.7 70.1c-3.3-2.9-5.8-5-6.4-10.9h-0.3q-0.3 0-0.6-0.1-0.3 0-0.6-0.1-0.3-0.1-0.6-0.2-0.2-0.1-0.5-0.2-0.4-0.3-0.8-0.6-0.4-0.4-0.7-0.8-0.3-0.4-0.6-0.8-0.2-0.4-0.4-0.9c-1.2-2.7-2.1-9.7 0.8-11.7l-0.5-0.4-0.1-0.8c-0.1-1.4-0.2-3.1-0.2-4.9-0.1-6.6-0.2-12.3-5.6-13.9l-2.2-0.7 1.5-1.8q1.4-1.9 3-3.7 1.6-1.8 3.3-3.5 1.6-1.7 3.4-3.3 1.8-1.6 3.6-3.1c5.1-4 10.3-6.7 15.4-7.5q2-0.3 4.1-0.2 2 0.1 3.9 0.7 2 0.5 3.7 1.5 1.8 0.9 3.4 2.2 0.5 0.5 1 1 0.6 0.4 1.1 0.9 0.5 0.5 0.9 1.1 0.5 0.5 1 1 1.7 0.2 3.4 0.8 1.7 0.6 3.3 1.5 1.5 0.9 2.9 2.1 1.3 1.2 2.4 2.6c6.6 8.8 7 21-1.3 29q0.2 0 0.5 0.1 0.2 0 0.5 0.1 0.3 0 0.5 0.1 0.2 0.1 0.5 0.2c2.2 1.2 2.3 3.8 1.7 6-0.6 1.8-1.3 3.9-2 5.6-0.9 2.5-2.1 2.9-4.4 2.7-0.2 5.8-2.9 7.5-6.5 10.9 1.1 10.3-30.4 9.8-31.5 0zm55 9.7q2 0 3.9 0.4 2 0.4 3.8 1.2 1.9 0.7 3.5 1.8 1.7 1.1 3.1 2.6c1.9 1.8 3.4 4.1 4.4 6.5 1 2.5 1.5 5.1 1.5 7.7 0 2.7-0.5 5.3-1.5 7.8-1 2.4-2.5 4.6-4.4 6.5-1.9 1.9-4.1 3.4-6.6 4.4-2.4 1-5 1.5-7.7 1.5-2.6 0-5.3-0.5-7.7-1.5-2.5-1-4.7-2.5-6.6-4.4-1.8-1.9-3.3-4.1-4.3-6.5-1-2.5-1.6-5.1-1.6-7.8 0-2.6 0.6-5.2 1.6-7.7 1-2.4 2.5-4.7 4.3-6.5q1.4-1.4 3.1-2.6 1.7-1.1 3.5-1.8 1.8-0.8 3.8-1.2 1.9-0.4 3.9-0.4zm0 0q0 0 0 0zm11.5 8.7c-5.5-5.5-14.1-6.3-20.6-2-6.5 4.4-9 12.7-6 19.9 3 7.1 10.7 11.2 18.3 9.7 7.6-1.6 13.1-8.3 13.1-16q0-1.7-0.3-3.2-0.3-1.6-0.9-3.1-0.6-1.5-1.5-2.8-0.9-1.3-2.1-2.5zm-10.8 0.9q0.5 0 1 0.1 0.5 0.2 0.9 0.6 0.4 0.4 0.6 0.9 0.2 0.5 0.1 1.1 0 0.3-0.1 0.6 0 0.4-0.2 0.7-0.2 0.3-0.4 0.5-0.2 0.3-0.5 0.5-0.3 0.2-0.6 0.4-0.4 0.2-0.7 0.3-0.4 0.1-0.8 0.2-0.3 0.1-0.7 0.1-0.3 0-0.6-0.1-0.2 0-0.5-0.1-0.3-0.1-0.5-0.2-0.2-0.2-0.4-0.3-0.2-0.2-0.4-0.4-0.1-0.2-0.2-0.5-0.1-0.2-0.1-0.4-0.1-0.3-0.1-0.5 0-0.4 0.1-0.7 0.1-0.4 0.2-0.7 0.2-0.3 0.4-0.6 0.2-0.3 0.5-0.5 0.3-0.2 0.7-0.4 0.3-0.2 0.7-0.3 0.4-0.2 0.7-0.2 0.4-0.1 0.8-0.1zm-5.8 17.4h1.5v-7.2h-2c0-2.8 5-1 8.7-1.9v9.1h1.9v3h-10.1zm-51.5-29.4c7 12.1 30.9 8.8 34.2 0q0.5 0.4 1 0.8 0.6 0.3 1.1 0.7 0.6 0.3 1.1 0.5 0.6 0.3 1.2 0.5-0.6 0.5-1.1 1c-2 2.1-3.7 4.4-5 7-1.3 2.6-2.2 5.3-2.6 8.2-0.4 2.8-0.4 5.7 0.1 8.6 0.5 2.8 1.4 5.6 2.8 8.1h-78.8c2-9.4 1.8-19.7 11.2-24.9 8.4-4.7 28-4.3 34.8-10.5z"/>
</svg>