<svg version="1.2" xmlns="http://www.w3.org/2000/svg" viewBox="0 0 123 123" width="123" height="123">
	<title>ticket-icon-svg</title>
	<style>
		.s0 { fill: #ffffff } 
	</style>
	<g id="Layer">
		<path id="Layer" fill-rule="evenodd" class="s0" d="m1 80l63.7-63.7c0.5 0.1 1.1-0.1 1.5-0.5 0.5-0.4 0.6-1 0.6-1.6l13.2-13.2c1.3-1.4 3.6-1.4 5 0l10.4 10.5c-2.7 4.4-2.1 10.4 1.7 14.2 3.9 3.9 9.8 4.5 14.3 1.7l10.4 10.5c1.4 1.4 1.4 3.6 0 5l-13.2 13.2c-0.5-0.1-1.1 0.1-1.5 0.5-0.4 0.5-0.6 1-0.5 1.6l-63.7 63.6c-1.4 1.4-3.6 1.4-5 0l-10.4-10.3c3-4.5 2.5-10.7-1.5-14.6-3.9-4-10.1-4.5-14.6-1.5l-10.4-10.4c-1.3-1.4-1.3-3.7 0-5zm101.3-25.6c0.7 0.7 1.9 0.7 2.6 0 0.7-0.7 0.7-1.9 0-2.6-0.7-0.7-1.9-0.7-2.6 0-0.8 0.7-0.8 1.9 0 2.6zm-4.9-4.8c0.8 0.7 1.9 0.7 2.6 0 0.8-0.7 0.8-1.9 0-2.6-0.7-0.7-1.8-0.7-2.6 0-0.7 0.7-0.7 1.9 0 2.6zm-4.8-4.8c0.7 0.7 1.9 0.7 2.6 0 0.7-0.8 0.7-1.9 0-2.7-0.7-0.7-1.9-0.7-2.6 0-0.7 0.8-0.7 1.9 0 2.7zm-4.8-4.9c0.7 0.7 1.9 0.7 2.6 0 0.7-0.7 0.7-1.9 0-2.6-0.7-0.7-1.9-0.7-2.6 0-0.7 0.7-0.7 1.9 0 2.6zm-4.8-4.8c0.7 0.7 1.8 0.7 2.6 0 0.7-0.7 0.7-1.9 0-2.6-0.8-0.7-1.9-0.7-2.6 0-0.8 0.7-0.8 1.9 0 2.6zm-4.9-4.8c0.7 0.7 1.9 0.7 2.6 0 0.8-0.7 0.8-1.9 0-2.6-0.7-0.8-1.9-0.8-2.6 0-0.7 0.7-0.7 1.9 0 2.6zm-4.8-4.9c0.7 0.8 1.9 0.8 2.6 0 0.7-0.7 0.7-1.9 0-2.6-0.7-0.7-1.9-0.7-2.6 0-0.7 0.8-0.7 1.9 0 2.6zm-4.8-4.8c0.7 0.7 1.8 0.7 2.6 0 0.7-0.7 0.7-1.9 0-2.6-0.8-0.7-1.9-0.7-2.6 0-0.8 0.7-0.8 1.9 0 2.6zm-43.1 60.2l18.1 18.1c1.7 1.6 4.3 1.6 5.9 0l39.4-39.4c1.6-1.6 1.6-4.3 0-5.9l-18.1-18.1c-1.6-1.6-4.2-1.6-5.9 0l-39.3 39.4c-1.7 1.6-1.7 4.3-0.1 5.9z"/>
	</g>
</svg>