<svg version="1.2" xmlns="http://www.w3.org/2000/svg" viewBox="0 0 123 101" width="123" height="101">
	<title>withdraw-svg</title>
	<style>
		.s0 { fill: #ffffff } 
	</style>
	<g id="Layer">
		<path id="Layer" fill-rule="evenodd" class="s0" d="m29.8 87.8v-36.9h16.6c7.1 1.2 14.1 5 21.2 9.5h12.9c5.8 0.3 8.9 6.2 3.2 10.1-4.5 3.3-10.5 3.1-16.6 2.6-4.2-0.2-4.4 5.5 0 5.5 1.5 0.1 3.2-0.3 4.6-0.3 7.6 0 13.9-1.4 17.8-7.5l1.9-4.5 19.2-9.5c9.6-3.1 16.4 6.9 9.4 13.9-14 10.1-28.2 18.4-42.8 25.1-10.6 6.5-21.2 6.3-31.7 0zm12.5-87.7l71.4 19.1-9.9 37.1-71.4-19.1zm3.4 12.9l-3.9 14.7c3 0.8 4.8 3.9 4 6.9l47.5 12.7c0.8-3 4-4.8 7-4l3.9-14.7c-3-0.8-4.8-3.9-4-6.9l-47.5-12.7c-0.8 3-3.9 4.8-7 4zm30.3 4.3c6 1.6 9.6 7.8 8 13.9-1.7 6-7.9 9.6-13.9 8-6-1.6-9.6-7.8-8-13.9 1.6-6 7.8-9.6 13.9-8zm-76.1 30.1h24.8v44.2h-24.8z"/>
	</g>
</svg>